Coordinates
version=1
nRows=14
nColumns=24
inDegrees=yes

Units are S.I. units (second, meters, Newtons, ...)
Angles are in degrees.

endheader
time	pelvis_tilt	pelvis_list	pelvis_rotation	pelvis_tx	pelvis_ty	pelvis_tz	hip_flexion_r	hip_adduction_r	hip_rotation_r	knee_angle_r	ankle_angle_r	subtalar_angle_r	mtp_angle_r	hip_flexion_l	hip_adduction_l	hip_rotation_l	knee_angle_l	ankle_angle_l	subtalar_angle_l	mtp_angle_l	lumbar_extension	lumbar_bending	lumbar_rotation
      4.38000000	    -18.38688772	     -6.74506869	      2.98611429	     -1.40724660	     -0.02325881	     -0.26358754	     28.37104394	      9.10477830	     -7.82860634	    -24.64102089	      8.85449517	    -13.52516393	     -0.02400615	     32.20053489	    -10.12255199	     -4.46311666	    -60.90730363	     -5.90870861	     -3.52358909	     18.44542496	     19.11765921	      4.31593067	    -16.11968093
      4.38500000	    -18.43488112	     -6.41145672	      2.78420663	     -1.40135022	     -0.02225945	     -0.26335346	     27.65911798	      8.96571256	     -7.40089643	    -24.09570682	      8.95046436	    -13.48930337	     -0.27064650	     32.85653009	     -9.85475386	     -4.90762778	    -60.45887456	     -5.17433655	     -3.60814645	     18.41765601	     19.10269978	      4.07129009	    -15.76198739
      4.39000000	    -18.46358277	     -6.10303448	      2.57035432	     -1.39547616	     -0.02132632	     -0.26311481	     26.92817178	      8.85289812	     -6.95381124	    -23.54810804	      9.05856584	    -13.43518085	     -0.63160785	     33.49021452	     -9.63705195	     -5.38389110	    -59.97596900	     -4.47352309	     -3.72912826	     18.29801019	     19.06279245	      3.85819970	    -15.39363282
      4.39500000	    -18.51223158	     -5.77990033	      2.37736680	     -1.38961580	     -0.02046149	     -0.26290323	     26.22772256	      8.69829957	     -6.56019362	    -23.00965403	      9.17487282	    -13.35473386	     -0.94532342	     34.13300343	     -9.39888830	     -5.84975534	    -59.43216566	     -3.80863213	     -3.79243699	     18.16119753	     19.04855746	      3.61635978	    -15.05929809
      4.40000000	    -18.57162248	     -5.44703273	      2.20713676	     -1.38377018	     -0.01965946	     -0.26273763	     25.54953549	      8.50855853	     -6.21942828	    -22.48096393	      9.27473702	    -13.29149053	     -1.17954970	     34.77461300	     -9.14353673	     -6.30842820	    -58.82579372	     -3.18653296	     -3.84112499	     18.03832019	     19.04485323	      3.35792950	    -14.74359319
      4.40500000	    -18.61088410	     -5.13395222	      2.00962114	     -1.37794737	     -0.01892174	     -0.26254272	     24.85027790	      8.34773751	     -5.83299883	    -21.94720215	      9.38927046	    -13.20395054	     -1.44319467	     35.38289071	     -8.94283368	     -6.81535402	    -58.17993662	     -2.60656832	     -3.93115561	     17.86046632	     19.01674967	      3.12633490	    -14.40489082
      4.41000000	    -18.65050332	     -4.82618184	      1.83180969	     -1.37213516	     -0.01826117	     -0.26239930	     24.15801699	      8.17179274	     -5.47689785	    -21.41953870	      9.51334524	    -13.11366132	     -1.70544910	     35.98496997	     -8.74734404	     -7.32349762	    -57.48966814	     -2.06517711	     -3.99561798	     17.66981355	     18.99080455	      2.89885536	    -14.08706907
      4.41500000	    -18.68454061	     -4.52775357	      1.65026877	     -1.36634436	     -0.01766561	     -0.26225531	     23.46760527	      7.99817963	     -5.13110183	    -20.89815608	      9.63834058	    -13.01097125	     -1.97534597	     36.56729218	     -8.57525347	     -7.84823452	    -56.75131916	     -1.56103496	     -4.05360989	     17.46160534	     18.95790656	      2.67782586	    -13.76712142
      4.42000000	    -18.65178139	     -4.27362034	      1.48984155	     -1.36055443	     -0.01710091	     -0.26213550	     22.69904024	      7.86895320	     -4.75805132	    -20.37523745	      9.79106235	    -12.90175007	     -2.69117169	     37.08048898	     -8.45555090	     -8.37950410	    -56.00367820	     -1.04171678	     -4.05624429	     16.94807073	     18.85393946	      2.49546701	    -13.50804865
      4.42500000	    -18.74512427	     -3.98337928	      1.31952057	     -1.35480922	     -0.01671573	     -0.26204627	     22.09992127	      7.66728505	     -4.49601136	    -19.88486132	      9.93417631	    -12.74021489	     -2.80543855	     37.70257573	     -8.29522675	     -8.90170702	    -55.16762459	     -0.62391093	     -4.04398089	     16.86141413	     18.88315142	      2.27913693	    -13.18225642
      4.43000000	    -18.77817238	     -3.70096941	      1.14505027	     -1.34906099	     -0.01633916	     -0.26195296	     21.42912293	      7.47903549	     -4.18553087	    -19.37975033	     10.06934225	    -12.62920307	     -2.96036339	     38.23706904	     -8.16329237	     -9.46374871	    -54.28187511	     -0.23619639	     -4.04358714	     16.73874268	     18.84698228	      2.07063115	    -12.87408749
      4.43500000	    -18.79838159	     -3.43909327	      0.97536294	     -1.34332440	     -0.01602594	     -0.26187313	     20.74965109	      7.30303645	     -3.89068382	    -18.87714579	     10.20137353	    -12.51262593	     -3.12892466	     38.74496470	     -8.05835335	    -10.02877061	    -53.35604434	      0.13378476	     -3.99218298	     16.61394833	     18.79587968	      1.88081543	    -12.57936087
      4.44000000	    -18.82261282	     -3.18994960	      0.81831322	     -1.33759180	     -0.01579384	     -0.26183555	     20.08064667	      7.12570446	     -3.62262295	    -18.38122536	     10.33778764	    -12.39309408	     -3.28382905	     39.24306024	     -7.96239894	    -10.59172799	    -52.38719198	      0.48031754	     -3.89108347	     16.50725317	     18.75199712	      1.70136402	    -12.29774497
      4.44500000	    -18.85604532	     -2.96029322	      0.67021911	     -1.33185784	     -0.01564732	     -0.26182273	     19.42594779	      6.95721452	     -3.38214805	    -17.88777146	     10.48820035	    -12.27085415	     -3.40814752	     39.73525887	     -7.87987824	    -11.13793539	    -51.37296923	      0.79963642	     -3.74306137	     16.42994834	     18.72098208	      1.54271364	    -12.04734285
